<svg id="Layer_1" data-name="Layer 1" xmlns="http://www.w3.org/2000/svg" viewBox="0 0 1408 426"><defs><style>.cls-1{fill:#fff;}.cls-2{fill:#5acdb2;}</style></defs><path class="cls-1" d="M370.37,283.44h-17l-3.65,8.14H346.4l13.92-30.46h3.18l13.92,30.46H374Zm-1.17-2.61-7.31-16.36-7.31,16.36Z"/><path class="cls-1" d="M392.91,261.12h12.4a18.15,18.15,0,0,1,8.53,1.94,14.15,14.15,0,0,1,5.74,5.39,16.25,16.25,0,0,1,0,15.8,14.15,14.15,0,0,1-5.74,5.39,18.15,18.15,0,0,1-8.53,1.94h-12.4Zm12.23,27.68a14.75,14.75,0,0,0,7-1.59,11.63,11.63,0,0,0,4.66-4.4,13.47,13.47,0,0,0,0-12.92,11.54,11.54,0,0,0-4.66-4.39,14.75,14.75,0,0,0-7-1.59h-9V288.8Z"/><path class="cls-1" d="M463.7,261.12l-13.49,30.46H447l-13.49-30.46H437l11.66,26.46,11.75-26.46Z"/><path class="cls-1" d="M496.73,283.44h-17l-3.66,8.14h-3.35l13.92-30.46h3.18l13.92,30.46h-3.39Zm-1.18-2.61-7.31-16.36-7.31,16.36Z"/><path class="cls-1" d="M544.72,261.12v30.46h-2.66l-19.58-24.71v24.71h-3.22V261.12h2.66l19.62,24.72V261.12Z"/><path class="cls-1" d="M570.15,289.84a14.62,14.62,0,0,1-5.7-5.55,16.26,16.26,0,0,1,0-15.88,14.68,14.68,0,0,1,5.72-5.55,16.79,16.79,0,0,1,8.18-2,17.09,17.09,0,0,1,6.27,1.13,13.14,13.14,0,0,1,4.87,3.31l-2,2a12.14,12.14,0,0,0-9-3.61,13.15,13.15,0,0,0-6.57,1.66,12.07,12.07,0,0,0-4.64,4.52,13.25,13.25,0,0,0,0,12.88,12.1,12.1,0,0,0,4.64,4.53,13.24,13.24,0,0,0,6.57,1.65,12,12,0,0,0,9-3.66l2,2.05a13.25,13.25,0,0,1-4.9,3.33,17.68,17.68,0,0,1-14.44-.85Z"/><path class="cls-1" d="M628.34,288.8v2.78H606.81V261.12h20.88v2.79H610v10.83h15.75v2.74H610V288.8Z"/><path class="cls-1" d="M646.36,261.12h12.4a18.15,18.15,0,0,1,8.53,1.94,14.15,14.15,0,0,1,5.74,5.39,16.32,16.32,0,0,1,0,15.8,14.15,14.15,0,0,1-5.74,5.39,18.15,18.15,0,0,1-8.53,1.94h-12.4Zm12.22,27.68a14.77,14.77,0,0,0,7-1.59,11.54,11.54,0,0,0,4.65-4.4,13.4,13.4,0,0,0,0-12.92,11.45,11.45,0,0,0-4.65-4.39,14.77,14.77,0,0,0-7-1.59h-9V288.8Z"/><path class="cls-1" d="M717.8,263.91v12h15.75v2.79H717.8v12.92h-3.22V261.12h20.89v2.79Z"/><path class="cls-1" d="M757.29,289.82a14.83,14.83,0,0,1-5.75-5.55,16.25,16.25,0,0,1,0-15.84,14.83,14.83,0,0,1,5.75-5.55,17.65,17.65,0,0,1,16.36,0,14.88,14.88,0,0,1,5.72,5.55,16.13,16.13,0,0,1,0,15.88,14.74,14.74,0,0,1-5.72,5.55,17.65,17.65,0,0,1-16.36,0ZM772,287.34a11.82,11.82,0,0,0,4.56-4.53,13.4,13.4,0,0,0,0-12.92,11.82,11.82,0,0,0-4.56-4.53,13.94,13.94,0,0,0-13.08,0,11.94,11.94,0,0,0-4.61,4.53,13.26,13.26,0,0,0,0,12.92,11.94,11.94,0,0,0,4.61,4.53,13.94,13.94,0,0,0,13.08,0Z"/><path class="cls-1" d="M819.92,291.58l-7-9.79a21.4,21.4,0,0,1-2.44.13h-8.18v9.66h-3.22V261.12h11.4c3.89,0,6.93.93,9.14,2.79a9.47,9.47,0,0,1,3.3,7.65,9.44,9.44,0,0,1-7,9.58l7.44,10.44Zm-2.57-14.4a7.84,7.84,0,0,0,0-11.29c-1.59-1.32-3.9-2-6.91-2h-8.1v15.27h8.1C813.45,279.18,815.76,278.51,817.35,277.18Z"/><path class="cls-1" d="M862.56,288.8v2.78H841V261.12h20.89v2.79H844.24v10.83H860v2.74H844.24V288.8Z"/><path class="cls-1" d="M899.28,291.58l-9.83-13.4-9.79,13.4H876l11.58-15.66-10.84-14.8h3.7l9.18,12.45,9.14-12.45h3.48l-10.79,14.71L903,291.58Z"/><path class="cls-1" d="M962.55,288.8v2.78H941V261.12h20.88v2.79H944.23v10.83H960v2.74H944.23V288.8Z"/><path class="cls-1" d="M980.56,261.12H993a18.15,18.15,0,0,1,8.53,1.94,14.15,14.15,0,0,1,5.74,5.39,16.25,16.25,0,0,1,0,15.8,14.15,14.15,0,0,1-5.74,5.39,18.15,18.15,0,0,1-8.53,1.94h-12.4Zm12.23,27.68a14.73,14.73,0,0,0,7-1.59,11.57,11.57,0,0,0,4.66-4.4,13.47,13.47,0,0,0,0-12.92,11.48,11.48,0,0,0-4.66-4.39,14.73,14.73,0,0,0-7-1.59h-9V288.8Z"/><path class="cls-1" d="M1030,288.45q-3.32-3.4-3.31-9.88V261.12h3.22v17.32q0,5.31,2.39,7.92t6.92,2.61q4.57,0,7-2.61t2.4-7.92V261.12h3.13v17.45q0,6.48-3.29,9.88t-9.2,3.39Q1033.3,291.84,1030,288.45Z"/><path class="cls-1" d="M1076.91,289.84a14.62,14.62,0,0,1-5.7-5.55,16.33,16.33,0,0,1,0-15.88,14.7,14.7,0,0,1,5.73-5.55,16.77,16.77,0,0,1,8.18-2,17,17,0,0,1,6.26,1.13,13.06,13.06,0,0,1,4.87,3.31l-2,2a12.16,12.16,0,0,0-9-3.61,13.15,13.15,0,0,0-6.57,1.66,12.11,12.11,0,0,0-4.63,4.52,13.18,13.18,0,0,0,0,12.88,12.14,12.14,0,0,0,4.63,4.53,13.24,13.24,0,0,0,6.57,1.65,12,12,0,0,0,9-3.66l2,2.05a13.13,13.13,0,0,1-4.89,3.33,17.7,17.7,0,0,1-14.45-.85Z"/><path class="cls-1" d="M1131.89,283.44h-17l-3.65,8.14h-3.35l13.92-30.46H1125l13.92,30.46h-3.4Zm-1.18-2.61-7.3-16.36-7.31,16.36Z"/><path class="cls-1" d="M1158.82,263.91h-10.7v-2.79h24.63v2.79H1162v27.67h-3.22Z"/><path class="cls-1" d="M1188.32,261.12h3.22v30.46h-3.22Z"/><path class="cls-1" d="M1217,289.82a14.83,14.83,0,0,1-5.75-5.55,16.25,16.25,0,0,1,0-15.84,14.83,14.83,0,0,1,5.75-5.55,17.65,17.65,0,0,1,16.36,0,14.88,14.88,0,0,1,5.72,5.55,16.13,16.13,0,0,1,0,15.88,14.74,14.74,0,0,1-5.72,5.55,17.65,17.65,0,0,1-16.36,0Zm14.73-2.48a11.82,11.82,0,0,0,4.56-4.53,13.4,13.4,0,0,0,0-12.92,11.82,11.82,0,0,0-4.56-4.53,13.94,13.94,0,0,0-13.08,0,11.94,11.94,0,0,0-4.61,4.53,13.26,13.26,0,0,0,0,12.92,11.94,11.94,0,0,0,4.61,4.53,13.94,13.94,0,0,0,13.08,0Z"/><path class="cls-1" d="M1284.31,261.12v30.46h-2.66l-19.58-24.71v24.71h-3.22V261.12h2.66l19.62,24.72V261.12Z"/><circle class="cls-2" cx="197.64" cy="209.63" r="113.63"/><path class="cls-1" d="M209.63,100.42a.35.35,0,0,1,.39-.31l1.42.17a.34.34,0,0,1,.31.39.35.35,0,0,1-.35.32h0l-1.42-.16A.37.37,0,0,1,209.63,100.42Zm-19.62,0h0l1.42-.08a.36.36,0,0,0,.33-.38.35.35,0,0,0-.37-.34l-1.43.09a.36.36,0,0,0,0,.72Zm24.87,1.08c.47.08.94.15,1.41.24h.06a.35.35,0,0,0,.35-.3.37.37,0,0,0-.29-.41l-1.42-.23a.37.37,0,0,0-.41.3A.36.36,0,0,0,214.88,101.48Zm-9.9-1.1,1.42.1h0a.35.35,0,0,0,.35-.33.34.34,0,0,0-.33-.38L205,99.66a.38.38,0,0,0-.38.34A.37.37,0,0,0,205,100.38Zm-5-.22,1.42,0h0a.36.36,0,0,0,.36-.35.36.36,0,0,0-.34-.37l-1.44,0a.32.32,0,0,0-.36.35A.36.36,0,0,0,200,100.16Zm-5,0h0l1.43,0a.36.36,0,0,0,.35-.36.35.35,0,0,0-.36-.35h0l-1.43,0a.37.37,0,0,0-.35.37A.35.35,0,0,0,195,100.16Zm-10,.69h0l1.42-.16a.35.35,0,1,0-.07-.7c-.48,0-1,.09-1.43.15a.36.36,0,0,0,0,.71Zm-4.95.68h0l1.41-.22a.35.35,0,0,0,.3-.41.37.37,0,0,0-.4-.3l-1.42.22a.37.37,0,0,0-.3.41A.36.36,0,0,0,180.08,101.53Zm-4.92.91h.07l1.4-.28a.36.36,0,1,0-.14-.7l-1.4.28a.36.36,0,0,0,.07.71Zm44.62-.07,1.4.3h.07a.36.36,0,0,0,.08-.71l-1.4-.3a.36.36,0,0,0-.42.28A.35.35,0,0,0,219.78,102.37Zm84.15,106.52A106.43,106.43,0,0,1,197.61,315.2h-.71V301.28l-1.43,0v13.92A106.32,106.32,0,1,1,303.93,208.89Zm-4.28,0A102,102,0,1,0,186.91,310.36v-9.73a90.6,90.6,0,0,1-13.36-2.6c3.7,3.09,7.33,5.16,11.26,4.64a8.32,8.32,0,0,1-5.31-.13c-6.27,3-8.92-1-11.17-6.11q-2.93-1-5.78-2.18a92.05,92.05,0,0,1-23.05-13.9,28.19,28.19,0,0,0-5.77,1.51,29.23,29.23,0,0,1,5.44-1.79q-3.27-2.73-6.28-5.74a91.24,91.24,0,0,1-12.68-16c-4.81-5-6.55-12-12.29-13.74a10,10,0,0,1,4.82-1.15,91.29,91.29,0,0,1,0-66.58,20.72,20.72,0,0,1-3.26-1.71,18.61,18.61,0,0,1-2.13-1.61c-.34-.31-.68-.64-1-1a9.35,9.35,0,0,1-1-1.16,10.15,10.15,0,0,1,1.46-.33c.47-.07.94-.12,1.4-.15a16.93,16.93,0,0,1,2.67,0c.21,0,.42.05.63.07a94.2,94.2,0,0,1,81.86-56.17l1.9,2.08.14.16v2h0v0h0v47.51a69.61,69.61,0,0,0-8.56,9.57V124a86,86,0,0,0-67.14,49.61l-.06.14c.28.16.57.32.84.5a17.1,17.1,0,0,1,2.13,1.62,13.26,13.26,0,0,1,1,1,9.35,9.35,0,0,1,1,1.16,10.71,10.71,0,0,1-1.46.32,13.64,13.64,0,0,1-1.4.16,19.73,19.73,0,0,1-2.67,0,22,22,0,0,1-5-1.08l-.7-.27a90,90,0,0,0-5.8,28.85c.63,3.88,2.69,7.31,5.94,7.12,3-.17,5.85-2.78,4.85-8.29,1.37,3.24.38,9.05-4.79,9.35-2.83.16-5.06-2.33-6.06-5.66,0,.39,0,.77,0,1.16a90.18,90.18,0,0,0,7,34.4.14.14,0,0,0,0,.06h0s-.2-3.8,1.7-5.35c.38,1.33,3.35.93,4.2,2.65,0,0,1.32-2.85,6.17-1.82-4.22,2.48-9.07,8.69-5.19,17.63A91.61,91.61,0,0,0,134.19,273a88.39,88.39,0,0,0,7.45,6.63,22.88,22.88,0,0,1,15,3.76c8-2.33,10.75,5.2,13.69,11.53a89.61,89.61,0,0,0,16.6,3.57v-59.7c1.79,2.05,3.84,4,5.93,6,.87.83,1.75,1.68,2.63,2.55v51.72h1.43V248.85a44.27,44.27,0,0,1,8.56,11.52v38.45a91.1,91.1,0,0,0,17-3.11c3-6.34,5.67-13.91,13.71-11.58,4.69-2.92,10-4.64,16.31-3.57a90.36,90.36,0,0,0,21.66-23.91c3.38-8.68-1.41-14.64-5.58-17,4.84-1.08,6.19,1.76,6.19,1.76.83-1.74,3.8-1.37,4.17-2.7,1.92,1.53,1.75,5.34,1.75,5.34l0,0a89.17,89.17,0,0,0,5.83-20.28c-1.85,4-5.41,6.78-8.62,5.54-4.84-1.86-4-7.69-1.71-10.36-2.64,5-.69,8.31,2.08,9.37,3.51,1.35,7-2.36,8.57-6.63a90.09,90.09,0,0,0-5-44.67l-1,.38a22,22,0,0,1-5,1.08,19.73,19.73,0,0,1-2.67,0,13.64,13.64,0,0,1-1.4-.16,10.71,10.71,0,0,1-1.46-.32,9.35,9.35,0,0,1,.95-1.16,13.26,13.26,0,0,1,1-1,17.87,17.87,0,0,1,2.13-1.62c.45-.29.91-.55,1.37-.8l-.1-.22a86,86,0,0,0-70.13-49.57v32.74a80,80,0,0,1-7.78,8.06l-.78.75V119h0v-1.43l.66-.72,1.92-2.11a94.22,94.22,0,0,1,84.46,56.18,16.91,16.91,0,0,1,2.67,0c.45,0,.92.08,1.39.15a10.15,10.15,0,0,1,1.46.33,10.3,10.3,0,0,1-.94,1.16c-.33.35-.67.68-1,1a18.61,18.61,0,0,1-2.13,1.61,20.55,20.55,0,0,1-3,1.58,91.27,91.27,0,0,1,.08,66.65,10.14,10.14,0,0,1,4.82,1.1c-5.9,1.89-7.49,9.29-12.6,14.31a89.74,89.74,0,0,1-19.91,22.33,30.93,30.93,0,0,1,4.21,1.49,29.84,29.84,0,0,0-4.47-1.28,91.79,91.79,0,0,1-21.87,13q-4.08,1.69-8.3,3c-2.24,5-4.9,9-11.13,6a8.25,8.25,0,0,1-5.31.14c4,.52,7.65-1.61,11.39-4.76a92.7,92.7,0,0,1-13.87,2.3v9.69A102.17,102.17,0,0,0,299.65,208.89Zm-86.33,94.34c3.8.92,6-1.59,7.9-5.09l-.35.1A24.21,24.21,0,0,1,213.32,303.23ZM226,293.48l-.56,1.32c2.2-.71,4.36-1.5,6.5-2.38A90.11,90.11,0,0,0,252,280.91a24.11,24.11,0,0,0-14.79,3.58l.51.2c-.2-.06-.4-.1-.6-.14A64.1,64.1,0,0,0,226,293.48Zm9.81-9.13c-4.68-.36-7.1,3.18-9,7.37A62,62,0,0,1,235.79,284.35Zm42.4-116.13a90.48,90.48,0,0,0-49.79-43.85l-.31-.12c-.8-.28-1.6-.56-2.4-.82l-.7-.22c-.68-.22-1.37-.43-2.05-.63l-1-.28c-.6-.17-1.19-.33-1.79-.48l-1.24-.31q-.78-.2-1.56-.36l-1.46-.32-1.36-.26-1.67-.31-1.14-.18c-.49-.07-1-.15-1.46-.21l-.1,0c-.73-.1-1.47-.19-2.2-.27l-1-.12-1.4-.12-1.23-.1-1.27-.09-1.07-.06-.43,0h0v.35h0l0,.35a89.84,89.84,0,0,1,76,48.78l.41-.21.22-.11ZM171.54,297.45c1.87,3.49,4.1,6,7.89,5.07a24.05,24.05,0,0,1-7.51-5ZM155,284l.51-.19a24.52,24.52,0,0,0-13.34-3.67,89.52,89.52,0,0,0,21.1,12.3c1.31.54,2.62,1,3.95,1.52-.16-.39-.32-.78-.49-1.17a65,65,0,0,0-11.13-8.93Zm11,7c-1.94-4.19-4.36-7.73-9-7.37A62.5,62.5,0,0,1,166,291Zm-45.13-34.78c.18.3.38.6.57.9A7.14,7.14,0,0,0,120.87,256.23Zm7.22-104.08a90,90,0,0,1,27.71-22.76,91.65,91.65,0,0,0-8,4.75,90.68,90.68,0,0,0-30.34,34.07h0l.32.17.31.16A90.29,90.29,0,0,1,190.86,120l.33,0v-.7l-.72.05-2.3.21-.49.06A90.35,90.35,0,0,0,128.09,152.15Zm76.37,52.69c.33-.21.67-.4,1-.6V168.05c-1.49,1.6-3.11,3.16-4.75,4.74-1.26,1.21-2.54,2.45-3.81,3.73v61a85.76,85.76,0,0,1,8.56,9.12V215c-.33-.21-.67-.4-1-.6a39.29,39.29,0,0,1-5-3.7l-1.2-1.07,1.2-1.07A38.14,38.14,0,0,1,204.46,204.84Zm-9,31.29V178a38.55,38.55,0,0,0-8.56,13.06v35.75C189,229.9,192.08,232.9,195.47,236.13Zm-41.95-44.82a16.14,16.14,0,0,0-2.73-1.8,14.66,14.66,0,0,0-5.33-1.69,91.82,91.82,0,0,0-2,10.07l-.49,4.42-.24,4.43c-.07,1.48,0,3,0,4.44,0,.74,0,1.48.08,2.22l.13,2.22a93.2,93.2,0,0,0,3.25,18.64c1-2.58,2.3-5.35,3.78-8.37.74-1.49,1.5-3.09,2.26-4.74-.24-3.5-.34-7-.27-10.6A147.91,147.91,0,0,1,153.52,191.31Zm-20.63,12.76c.61,3.17,1.93,5.25,4.16,6.49a79,79,0,0,1,1.1-13.48,81.36,81.36,0,0,1,1.89-8.35,9.84,9.84,0,0,0-1.75,1A15,15,0,0,0,132.89,204.07Zm20.67,28.52a59.59,59.59,0,0,0-3.48,13q.9,2.19,1.9,4.35a110.45,110.45,0,0,0,8.93,15.66c1.7,2.49,3.52,4.93,5.47,7.25.48.6,1,1.18,1.48,1.74s1,1.15,1.54,1.69l1.58,1.66,1.66,1.6a51.86,51.86,0,0,1-7.4-5.59,75.92,75.92,0,0,1-6.54-6.64,93.45,93.45,0,0,1-9.31-12.89,51.9,51.9,0,0,0,1.34,12.74l.13.46a73.28,73.28,0,0,0,21.07,16.2,90.54,90.54,0,0,0,11.41,4.28v-5C168,275,157.42,255.54,153.56,232.59ZM135,185.68l.49-.37A15,15,0,0,1,142,182.6c.44-1.22.9-2.44,1.39-3.63a96.77,96.77,0,0,1,20.69-30.73c-6.77,10.26-12.76,20.89-16.5,32.29-.23.7-.45,1.41-.67,2.11a20.58,20.58,0,0,1,6.35,2.18c.44.23.87.48,1.28.73,4.6-22.73,15.05-38,29.52-44.45v-6.42c-22.76,2.33-45,24.09-52.4,54.42A17.89,17.89,0,0,1,135,185.68ZM137.23,216c0-.35,0-.7,0-1a12.75,12.75,0,0,1-8-6.79q0,1.17,0,2.37a84.78,84.78,0,0,0,13.42,46.23c-.86-4.06-.68-8.66.87-14.42A85.72,85.72,0,0,1,137.23,216ZM106,269.55a.35.35,0,0,0-.49-.1.34.34,0,0,0-.1.49c.26.4.52.8.79,1.19a.34.34,0,0,0,.29.16.36.36,0,0,0,.2-.06.36.36,0,0,0,.1-.5C106.5,270.34,106.24,270,106,269.55ZM88.2,200.09h0a.37.37,0,0,0,.36-.32c0-.48.08-1,.13-1.42a.36.36,0,0,0-.71-.07c-.05.47-.09.95-.14,1.42A.37.37,0,0,0,88.2,200.09Zm-.32,5h0a.36.36,0,0,0,.36-.34c0-.48,0-1,.07-1.42a.36.36,0,0,0-.34-.38.35.35,0,0,0-.38.34c0,.47,0,.95-.07,1.43A.36.36,0,0,0,87.88,205.08Zm.72,14.6-.12-1.42a.35.35,0,0,0-.38-.33.36.36,0,0,0-.33.38l.12,1.43a.36.36,0,0,0,.36.33h0A.36.36,0,0,0,88.6,219.68Zm-.81-9.6a.36.36,0,0,0,.36-.36v-.09c0-.44,0-.89,0-1.33a.36.36,0,0,0-.36-.36.35.35,0,0,0-.36.35c0,.45,0,.89,0,1.34v.09A.36.36,0,0,0,87.79,210.08Zm1.72-19.9h.06a.35.35,0,0,0,.35-.29l.27-1.4a.37.37,0,0,0-.29-.42.35.35,0,0,0-.41.28c-.1.47-.18.94-.27,1.41A.36.36,0,0,0,89.51,190.18Zm-1.59,24.9a.36.36,0,0,0,.34-.37c0-.48,0-1-.05-1.43a.35.35,0,0,0-.37-.34.36.36,0,0,0-.35.37l.06,1.43a.36.36,0,0,0,.36.34Zm.82-20h.05a.36.36,0,0,0,.35-.31c.07-.47.13-.94.2-1.41a.35.35,0,0,0-.3-.4.34.34,0,0,0-.4.3l-.21,1.42A.36.36,0,0,0,88.74,195.12Zm12.32-37.88a.39.39,0,0,0,.18,0,.36.36,0,0,0,.31-.18l.69-1.25a.36.36,0,0,0-.13-.49.37.37,0,0,0-.49.14l-.7,1.25A.37.37,0,0,0,101.06,157.24Zm-10.56,28h.08a.37.37,0,0,0,.35-.28c.1-.46.21-.93.33-1.39a.36.36,0,0,0-.7-.17l-.33,1.4A.37.37,0,0,0,90.5,185.28Zm2.65-9.64h.11a.35.35,0,0,0,.34-.24c.15-.45.3-.91.46-1.36a.36.36,0,0,0-.68-.23c-.15.46-.31.91-.46,1.37A.36.36,0,0,0,93.15,175.64Zm1.66-4.74a.31.31,0,0,0,.13,0,.36.36,0,0,0,.33-.23c.17-.45.34-.89.52-1.34a.36.36,0,0,0-.2-.46.37.37,0,0,0-.47.2c-.17.45-.35.89-.52,1.34A.36.36,0,0,0,94.81,170.9Zm-3.1,9.53h.1a.34.34,0,0,0,.34-.26l.39-1.37a.35.35,0,0,0-.24-.44.35.35,0,0,0-.44.24c-.13.46-.27.92-.39,1.38A.35.35,0,0,0,91.71,180.43Zm3.12,67a.35.35,0,0,0-.46-.21.36.36,0,0,0-.21.46c.17.44.33.89.51,1.34a.35.35,0,0,0,.33.23l.13,0a.35.35,0,0,0,.2-.46C95.16,248.28,95,247.83,94.83,247.39ZM96.65,252a.34.34,0,0,0-.46-.19.35.35,0,0,0-.2.46l.57,1.32a.35.35,0,0,0,.32.21.4.4,0,0,0,.15,0,.36.36,0,0,0,.18-.47C97,252.89,96.84,252.45,96.65,252Zm-7.48-27.39c-.07-.47-.13-.94-.19-1.41a.35.35,0,0,0-.4-.31.36.36,0,0,0-.31.4c.06.47.12.95.19,1.42a.36.36,0,0,0,.35.31h0A.35.35,0,0,0,89.17,224.63Zm14.18,40.7a.35.35,0,1,0-.61.36l.73,1.23a.37.37,0,0,0,.31.17.37.37,0,0,0,.18,0,.35.35,0,0,0,.12-.49ZM100.92,261a.37.37,0,0,0-.49-.15.36.36,0,0,0-.14.49c.22.42.45.84.68,1.25a.34.34,0,0,0,.31.19.33.33,0,0,0,.17,0,.36.36,0,0,0,.14-.49C101.36,261.83,101.14,261.41,100.92,261Zm-2.24-4.44a.36.36,0,1,0-.64.31c.2.43.41.86.62,1.28a.35.35,0,0,0,.32.2.45.45,0,0,0,.16,0,.36.36,0,0,0,.16-.48C99.09,257.41,98.89,257,98.68,256.55Zm4.88-103.66a.3.3,0,0,0,.18.06.36.36,0,0,0,.31-.18c.24-.4.49-.81.75-1.21a.36.36,0,0,0-.12-.49.37.37,0,0,0-.49.11l-.75,1.22A.35.35,0,0,0,103.56,152.89Zm-4.79,8.8a.32.32,0,0,0,.16,0,.35.35,0,0,0,.32-.2c.21-.43.42-.85.64-1.28a.36.36,0,0,0-.16-.48.36.36,0,0,0-.48.16c-.22.43-.43.86-.64,1.29A.35.35,0,0,0,98.77,161.69Zm-6.94,76.2a.37.37,0,0,0-.44-.26.36.36,0,0,0-.25.44c.12.46.25.92.38,1.38a.34.34,0,0,0,.34.26H92a.35.35,0,0,0,.24-.44C92.08,238.8,92,238.35,91.83,237.89Zm-2.53-10a.36.36,0,0,0-.3.41c.08.47.17.94.25,1.41a.37.37,0,0,0,.35.29h.07a.37.37,0,0,0,.29-.42c-.09-.46-.17-.93-.25-1.4A.36.36,0,0,0,89.3,227.86ZM90.66,233a.36.36,0,0,0-.43-.27.35.35,0,0,0-.27.42c.1.47.21.94.31,1.4a.36.36,0,0,0,.35.28h.08a.36.36,0,0,0,.27-.43C90.86,234,90.76,233.51,90.66,233Zm6-66.79a.32.32,0,0,0,.14,0,.36.36,0,0,0,.33-.21l.57-1.31a.36.36,0,1,0-.65-.29c-.19.43-.39.87-.58,1.31A.36.36,0,0,0,96.69,166.25Zm-3.47,76.42a.36.36,0,1,0-.68.22c.14.45.29.91.44,1.36a.36.36,0,0,0,.34.25l.11,0a.36.36,0,0,0,.23-.45C93.51,243.58,93.36,243.12,93.22,242.67Zm163.42,59.22-1.21.76a.37.37,0,0,0-.11.49.35.35,0,0,0,.3.17.41.41,0,0,0,.19-.05c.41-.25.81-.51,1.21-.77a.35.35,0,0,0,.11-.49A.36.36,0,0,0,256.64,301.89Zm-4.25,2.59-1.24.7a.36.36,0,0,0-.13.49.33.33,0,0,0,.31.18.33.33,0,0,0,.17,0l1.24-.71a.36.36,0,1,0-.35-.62Zm20-14.79-1.05,1a.36.36,0,0,0,0,.51.39.39,0,0,0,.27.11.38.38,0,0,0,.24-.09l1.05-1a.35.35,0,0,0,0-.5A.34.34,0,0,0,272.35,289.69Zm-11.59,9.42c-.38.28-.77.55-1.16.82a.35.35,0,0,0-.09.49.36.36,0,0,0,.29.16.31.31,0,0,0,.2-.07l1.18-.81a.36.36,0,0,0,.08-.5A.36.36,0,0,0,260.76,299.11Zm4-3-1.13.86a.35.35,0,0,0-.07.5.33.33,0,0,0,.28.15.37.37,0,0,0,.22-.08c.38-.29.76-.57,1.13-.87a.35.35,0,1,0-.43-.56Zm3.86-3.15-1.09.92a.36.36,0,0,0-.05.5.34.34,0,0,0,.28.13.3.3,0,0,0,.22-.08l1.1-.92a.36.36,0,0,0-.46-.55ZM248,306.87c-.42.22-.84.44-1.27.65a.36.36,0,0,0-.15.48.34.34,0,0,0,.31.19.41.41,0,0,0,.16,0l1.28-.66a.36.36,0,0,0-.33-.63Zm-23.21,8.86-1.38.34a.36.36,0,0,0,.08.7h.09l1.39-.35a.36.36,0,1,0-.18-.69Zm4.8-1.35-1.36.41a.37.37,0,0,0-.25.44.36.36,0,0,0,.35.26h.1l1.37-.41a.36.36,0,0,0-.21-.69ZM239,311l-1.32.53a.36.36,0,0,0-.2.47.35.35,0,0,0,.33.22.3.3,0,0,0,.13,0c.44-.18.89-.35,1.33-.54a.36.36,0,0,0,.2-.46A.37.37,0,0,0,239,311Zm4.56-2-1.3.59a.36.36,0,0,0-.18.47.36.36,0,0,0,.33.21l.15,0,1.29-.59a.36.36,0,1,0-.29-.65Zm-9.22,3.76-1.34.47a.35.35,0,0,0-.22.45.36.36,0,0,0,.33.25l.12,0,1.35-.48a.35.35,0,0,0,.22-.45A.36.36,0,0,0,234.35,312.82Zm51.27-38-.86,1.14a.35.35,0,0,0,.07.5.33.33,0,0,0,.21.07.37.37,0,0,0,.29-.14l.86-1.15a.35.35,0,1,0-.57-.42Zm12.94-21.75a.36.36,0,0,0-.46.19c-.2.44-.39.87-.58,1.31a.36.36,0,0,0,.18.47.32.32,0,0,0,.14,0,.36.36,0,0,0,.33-.21l.58-1.32A.35.35,0,0,0,298.56,253.09Zm-2.08,4.56a.36.36,0,0,0-.48.16c-.21.43-.42.85-.64,1.28a.35.35,0,0,0,.16.48.29.29,0,0,0,.16,0,.36.36,0,0,0,.32-.2c.21-.42.43-.85.64-1.28A.37.37,0,0,0,296.48,257.65Zm4-9.21a.37.37,0,0,0-.46.21l-.51,1.33a.35.35,0,0,0,.2.47l.13,0a.36.36,0,0,0,.33-.22c.18-.45.35-.9.52-1.34A.37.37,0,0,0,300.44,248.44Zm-6.26,13.66a.37.37,0,0,0-.49.14c-.22.42-.46.84-.69,1.25a.35.35,0,0,0,.14.49.33.33,0,0,0,.17,0,.34.34,0,0,0,.31-.18c.24-.41.47-.83.7-1.25A.37.37,0,0,0,294.18,262.1Zm9.37-23.18a.36.36,0,0,0-.44.25l-.39,1.37a.35.35,0,0,0,.24.44l.1,0a.35.35,0,0,0,.34-.26c.14-.46.27-.92.4-1.38A.36.36,0,0,0,303.55,238.92Zm-1.44,4.79a.35.35,0,0,0-.45.23c-.15.45-.3.9-.46,1.35a.37.37,0,0,0,.22.46l.12,0a.37.37,0,0,0,.34-.24c.15-.46.31-.91.46-1.37A.36.36,0,0,0,302.11,243.71Zm-19.56,35.06-.9,1.1a.36.36,0,0,0,.27.59.37.37,0,0,0,.27-.13l.92-1.11a.35.35,0,0,0-.06-.5A.36.36,0,0,0,282.55,278.77Zm-3.23,3.8-1,1.05a.36.36,0,0,0,0,.5.34.34,0,0,0,.24.1.34.34,0,0,0,.26-.12c.33-.35.65-.7,1-1.06a.35.35,0,1,0-.53-.47Zm-3.41,3.64-1,1a.35.35,0,0,0,0,.5.34.34,0,0,0,.5,0l1-1a.36.36,0,1,0-.51-.5Zm12.59-15.44-.81,1.17a.36.36,0,0,0,.09.5.42.42,0,0,0,.21.06.35.35,0,0,0,.29-.15l.81-1.19a.35.35,0,1,0-.59-.39Zm3.18-4.32a.36.36,0,0,0-.49.11c-.24.41-.49.81-.75,1.22a.37.37,0,0,0,.11.49.34.34,0,0,0,.19.05.38.38,0,0,0,.31-.16l.75-1.22A.35.35,0,0,0,291.68,266.45ZM220,316.85l-1.4.28a.36.36,0,0,0,.07.71h.06l1.41-.28a.36.36,0,0,0-.14-.7Zm-19.79,2.25-1.42,0a.35.35,0,0,0-.35.36.36.36,0,0,0,.35.36h0l1.43,0a.36.36,0,0,0,.35-.36A.34.34,0,0,0,200.18,319.1Zm-57.29-14.63-1.23-.72a.36.36,0,0,0-.37.62l1.24.72a.41.41,0,0,0,.18.05.36.36,0,0,0,.18-.67Zm-4.26-2.59-1.2-.78a.35.35,0,0,0-.49.1.34.34,0,0,0,.1.49l1.2.79a.37.37,0,0,0,.49-.11A.35.35,0,0,0,138.63,301.88Zm-9.27-6.65a.36.36,0,0,0-.5.06.35.35,0,0,0,.06.5l1.12.89a.36.36,0,0,0,.22.07.34.34,0,0,0,.28-.13.35.35,0,0,0-.06-.5Zm4,3a.36.36,0,0,0-.5.08.34.34,0,0,0,.08.49c.39.29.77.57,1.17.84a.31.31,0,0,0,.2.07.38.38,0,0,0,.29-.15.35.35,0,0,0-.08-.5Zm18.42,10.82-1.29-.61a.36.36,0,1,0-.31.64l1.3.61a.28.28,0,0,0,.15,0,.36.36,0,0,0,.33-.21A.36.36,0,0,0,151.75,309.08Zm-4.48-2.2-1.27-.67a.36.36,0,1,0-.33.63l1.27.67a.32.32,0,0,0,.16,0,.37.37,0,0,0,.32-.19A.36.36,0,0,0,147.27,306.88Zm-25.41-18.21a.35.35,0,0,0-.49.51l1,1a.38.38,0,0,0,.24.09.33.33,0,0,0,.26-.11.35.35,0,0,0,0-.5ZM115,281.45a.36.36,0,0,0-.54.47c.32.36.63.72,1,1.07a.36.36,0,0,0,.27.12.36.36,0,0,0,.26-.59ZM125.54,292a.37.37,0,0,0-.51,0,.35.35,0,0,0,0,.5l1.08.94a.34.34,0,0,0,.23.08.36.36,0,0,0,.27-.12.35.35,0,0,0,0-.5C126.25,292.66,125.9,292.35,125.54,292Zm-13.73-14.41a.36.36,0,0,0-.5-.06.35.35,0,0,0-.06.5c.3.38.59.75.9,1.12a.34.34,0,0,0,.27.13.4.4,0,0,0,.23-.08.36.36,0,0,0,0-.5Zm44.52,33.45-1.32-.55a.35.35,0,0,0-.46.19.35.35,0,0,0,.19.47l1.32.55a.34.34,0,0,0,.14,0,.36.36,0,0,0,.33-.22A.35.35,0,0,0,156.33,311.07Zm-38-25.93a.35.35,0,0,0-.5,0,.36.36,0,0,0,0,.51l1,1a.38.38,0,0,0,.26.11.39.39,0,0,0,.25-.1.36.36,0,0,0,0-.51Zm-9.54-11.49a.36.36,0,0,0-.58.42c.28.39.57.77.85,1.15a.35.35,0,0,0,.29.15.33.33,0,0,0,.21-.07.35.35,0,0,0,.07-.5Zm106.26,44.1c-.46.07-.93.15-1.4.21a.37.37,0,0,0-.31.41.36.36,0,0,0,.36.3h0l1.42-.22a.35.35,0,0,0,.29-.4A.36.36,0,0,0,215.06,317.75ZM195.2,319.1l-1.42,0a.37.37,0,0,0-.37.34.34.34,0,0,0,.34.37l1.43,0h0a.36.36,0,0,0,.36-.35A.36.36,0,0,0,195.2,319.1Zm10-.23c-.47,0-.94.06-1.42.09a.36.36,0,0,0-.34.38.35.35,0,0,0,.36.33h0l1.43-.08a.36.36,0,0,0,.33-.38A.37.37,0,0,0,205.16,318.87Zm5-.45c-.47.06-.95.11-1.42.15a.36.36,0,0,0,0,.72h0c.48,0,.95-.09,1.43-.15a.36.36,0,0,0-.08-.71Zm-19.91.46-1.42-.1a.35.35,0,0,0-.38.32.36.36,0,0,0,.32.39l1.43.1h0a.36.36,0,0,0,0-.71Zm-14.81-2c-.46-.1-.93-.19-1.39-.3a.36.36,0,0,0-.15.7l1.4.3h.07a.36.36,0,0,0,.07-.71Zm9.85,1.56-1.42-.16a.35.35,0,1,0-.09.7l1.43.17h0a.36.36,0,0,0,.35-.32A.37.37,0,0,0,185.26,318.43Zm-19.5-4-1.37-.42a.35.35,0,0,0-.45.23.36.36,0,0,0,.23.45l1.38.42.1,0a.35.35,0,0,0,.34-.25A.35.35,0,0,0,165.76,314.41Zm4.8,1.34-1.38-.36a.36.36,0,0,0-.19.69l1.39.36h.09a.34.34,0,0,0,.34-.27A.35.35,0,0,0,170.56,315.75Zm9.76,2-1.41-.23a.36.36,0,0,0-.41.29.35.35,0,0,0,.29.41l1.41.24h.06a.35.35,0,0,0,.35-.3A.36.36,0,0,0,180.32,317.76ZM161,312.85l-1.35-.49a.36.36,0,0,0-.46.21.36.36,0,0,0,.21.46l1.36.49.12,0a.36.36,0,0,0,.12-.69Zm4.47-207.93.1,0,1.36-.4a.37.37,0,0,0,.25-.45.36.36,0,0,0-.45-.24l-1.37.41a.36.36,0,0,0,.11.7Zm117.94,36.65a.35.35,0,0,0,.28.13.34.34,0,0,0,.22-.07.35.35,0,0,0,.06-.5c-.3-.38-.59-.75-.9-1.12a.36.36,0,0,0-.55.45Zm3,4a.37.37,0,0,0,.29.14.39.39,0,0,0,.21-.06.36.36,0,0,0,.08-.5l-.85-1.16a.36.36,0,1,0-.57.43Zm-6.19-7.8a.36.36,0,0,0,.27.12.4.4,0,0,0,.23-.08.36.36,0,0,0,0-.51c-.32-.36-.63-.72-.95-1.07a.36.36,0,0,0-.51,0,.35.35,0,0,0,0,.5Zm-6.88-7.21a.35.35,0,0,0,.25.1.36.36,0,0,0,.25-.11.34.34,0,0,0,0-.5l-1-1a.36.36,0,0,0-.5,0,.35.35,0,0,0,0,.5Zm3.52,3.53a.38.38,0,0,0,.26.11.35.35,0,0,0,.25-.1.36.36,0,0,0,0-.5c-.33-.35-.67-.69-1-1a.35.35,0,0,0-.5,0,.36.36,0,0,0,0,.51C276.22,133.37,276.55,133.72,276.88,134.06Zm12.38,15.57a.34.34,0,0,0,.29.17.36.36,0,0,0,.2-.06.36.36,0,0,0,.1-.5l-.79-1.19a.36.36,0,0,0-.5-.09.35.35,0,0,0-.09.49Zm18.59,59.82a.36.36,0,1,0-.71,0v.18c0,.48,0,1,0,1.42a.37.37,0,0,0,.35.37h0a.37.37,0,0,0,.36-.36v-1.61Zm-16-55.6a.36.36,0,0,0,.31.18.41.41,0,0,0,.18-.05.35.35,0,0,0,.12-.49c-.24-.41-.48-.82-.73-1.22a.35.35,0,0,0-.49-.12.36.36,0,0,0-.12.49Zm-43.95-41.51,1.26.67a.38.38,0,0,0,.17,0,.37.37,0,0,0,.32-.19.35.35,0,0,0-.15-.48l-1.27-.67a.36.36,0,1,0-.33.63Zm4.38,2.4,1.23.72a.31.31,0,0,0,.18.05.36.36,0,0,0,.19-.66l-1.24-.73a.36.36,0,0,0-.36.62Zm55.08,99.53h0a.36.36,0,0,0-.36.34c0,.48,0,.95-.07,1.43a.35.35,0,0,0,.33.37h0a.35.35,0,0,0,.36-.33c0-.48.05-1,.07-1.43A.36.36,0,0,0,307.4,214.27Zm-37.72-87.1a.35.35,0,0,0,.24.08.36.36,0,0,0,.27-.12.35.35,0,0,0,0-.5l-1.08-.94a.36.36,0,0,0-.47.55Q269.16,126.69,269.68,127.17Zm-26.23-17,1.3.61a.4.4,0,0,0,.15,0,.35.35,0,0,0,.32-.2.36.36,0,0,0-.17-.48l-1.3-.61a.35.35,0,0,0-.47.18A.36.36,0,0,0,243.45,110.15ZM265.86,124a.35.35,0,0,0,.22.08.36.36,0,0,0,.22-.64c-.37-.3-.75-.59-1.13-.88a.34.34,0,0,0-.5.06.36.36,0,0,0,.06.5Zm-9.27-6.63,1.19.77a.36.36,0,0,0,.2.06.38.38,0,0,0,.3-.16.36.36,0,0,0-.11-.49l-1.2-.79a.36.36,0,0,0-.49.11A.36.36,0,0,0,256.59,117.34Zm5.3,3.61a.31.31,0,0,0,.21.07.33.33,0,0,0,.28-.15.36.36,0,0,0-.08-.5l-1.16-.83a.36.36,0,0,0-.5.08.36.36,0,0,0,.09.5Zm42.24,60.15c-.13-.46-.25-.92-.38-1.38a.36.36,0,1,0-.69.19c.13.46.25.92.38,1.38a.34.34,0,0,0,.34.26h.09A.37.37,0,0,0,304.13,181.1Zm.48,5a.36.36,0,0,0,.35.28H305a.35.35,0,0,0,.27-.42c-.1-.47-.21-.94-.32-1.4a.35.35,0,1,0-.69.16C304.41,185.2,304.51,185.67,304.61,186.13ZM302,176.5a.35.35,0,0,0,.34.25h.11a.35.35,0,0,0,.23-.45c-.14-.46-.29-.91-.44-1.37a.36.36,0,0,0-.68.23C301.75,175.6,301.9,176.05,302,176.5Zm-1.61-4.71a.36.36,0,0,0,.33.23l.12,0a.35.35,0,0,0,.21-.46c-.16-.45-.33-.9-.5-1.34a.35.35,0,0,0-.46-.21.36.36,0,0,0-.21.46Zm-61.56-63.63,1.32.55a.34.34,0,0,0,.14,0,.35.35,0,0,0,.14-.68l-1.33-.55a.36.36,0,1,0-.27.66Zm67.05,83.16H306a.35.35,0,0,0,.29-.41c-.08-.47-.17-.94-.25-1.41a.38.38,0,0,0-.42-.29.36.36,0,0,0-.28.42c.08.47.17.93.25,1.4A.35.35,0,0,0,305.92,191.32Zm1.1,13.14.06,1.43a.35.35,0,0,0,.35.34h0a.35.35,0,0,0,.34-.37c0-.47,0-1-.06-1.43a.35.35,0,0,0-.37-.34A.36.36,0,0,0,307,204.46Zm-.91-9.92c.06.47.13.94.18,1.41a.37.37,0,0,0,.36.32h0a.35.35,0,0,0,.31-.4l-.18-1.42a.37.37,0,0,0-.41-.3A.36.36,0,0,0,306.11,194.54Zm.57,5,.12,1.42a.35.35,0,0,0,.35.33h0a.36.36,0,0,0,.33-.38l-.12-1.43a.38.38,0,0,0-.39-.33A.36.36,0,0,0,306.68,199.49Zm-.14,24.74a.36.36,0,0,0-.41.31c-.06.47-.13.94-.2,1.41a.36.36,0,0,0,.3.4h.06a.36.36,0,0,0,.35-.31c.07-.47.14-.94.2-1.42A.36.36,0,0,0,306.54,224.23Zm-.78,4.94a.36.36,0,0,0-.41.29c-.09.47-.17.93-.27,1.4a.37.37,0,0,0,.29.42h.06a.35.35,0,0,0,.35-.29q.15-.7.27-1.41A.36.36,0,0,0,305.76,229.17ZM106.44,148.73a.37.37,0,0,0,.3-.16l.8-1.18a.35.35,0,1,0-.58-.4c-.28.39-.55.79-.81,1.18a.35.35,0,0,0,.29.56Zm200.64,70.53a.37.37,0,0,0-.39.33c0,.47-.08.94-.13,1.41a.37.37,0,0,0,.32.4h0a.37.37,0,0,0,.36-.32c.05-.48.09-1,.13-1.43A.35.35,0,0,0,307.08,219.26Zm-2.31,14.81a.36.36,0,0,0-.43.27l-.33,1.39a.36.36,0,0,0,.26.43h.09a.35.35,0,0,0,.34-.27c.12-.47.23-.93.34-1.4A.37.37,0,0,0,304.77,234.07Zm-8.2-71.44a.35.35,0,0,0,.32.2l.15,0a.36.36,0,0,0,.17-.48c-.2-.43-.41-.86-.62-1.28a.37.37,0,0,0-.48-.17.35.35,0,0,0-.16.48Zm2,4.53a.35.35,0,0,0,.47.19.36.36,0,0,0,.19-.47l-.57-1.31a.34.34,0,0,0-.46-.18.35.35,0,0,0-.19.47C298.23,166.29,298.42,166.73,298.6,167.16Zm-4.27-9a.35.35,0,0,0,.31.19.33.33,0,0,0,.17,0,.36.36,0,0,0,.15-.49c-.23-.42-.45-.84-.68-1.25a.36.36,0,0,0-.63.34C293.88,157.36,294.11,157.77,294.33,158.19Zm-133.6-51.7.12,0,1.34-.47a.35.35,0,0,0,.22-.45.34.34,0,0,0-.45-.22l-1.35.47a.35.35,0,0,0,.12.69Zm-18.09,8.38a.39.39,0,0,0,.18,0l1.23-.71a.34.34,0,0,0,.14-.48.35.35,0,0,0-.49-.14l-1.24.71a.36.36,0,0,0-.13.49A.37.37,0,0,0,142.64,114.87Zm-4.26,2.6a.32.32,0,0,0,.19,0l1.21-.76a.37.37,0,0,0,.11-.49.36.36,0,0,0-.49-.12l-1.21.77a.35.35,0,0,0,.19.65Zm8.63-5a.33.33,0,0,0,.17,0l1.26-.65a.35.35,0,0,0,.16-.48.36.36,0,0,0-.48-.15l-1.27.65a.36.36,0,0,0,.16.67Zm-24.38,17.26a.35.35,0,0,0,.25-.1l1-1a.36.36,0,0,0,0-.51.37.37,0,0,0-.51,0l-1,1a.36.36,0,0,0,0,.51A.38.38,0,0,0,122.63,129.73Zm28.86-19.46a.4.4,0,0,0,.15,0l1.29-.59a.36.36,0,1,0-.29-.65l-1.3.59a.34.34,0,0,0-.17.47A.36.36,0,0,0,151.49,110.27Zm-17.25,10a.33.33,0,0,0,.21-.07c.39-.27.77-.55,1.16-.81a.36.36,0,0,0,.1-.5.37.37,0,0,0-.5-.09l-1.17.82a.36.36,0,0,0-.09.5A.38.38,0,0,0,134.24,120.27Zm-7.88,6.13a.35.35,0,0,0,.23-.09l1.09-.91a.36.36,0,1,0-.46-.55l-1.09.92a.36.36,0,0,0,0,.51A.36.36,0,0,0,126.36,126.4Zm107.84-20,1.34.49.12,0a.36.36,0,0,0,.13-.69l-1.36-.49a.36.36,0,0,0-.45.22A.35.35,0,0,0,234.2,106.38Zm-4.75-1.56,1.36.43h.11a.35.35,0,0,0,.11-.69l-1.38-.43a.35.35,0,1,0-.2.68Zm-4.81-1.33q.69.17,1.38.36h.09a.37.37,0,0,0,.35-.27.35.35,0,0,0-.25-.43l-1.39-.36a.36.36,0,0,0-.44.25A.37.37,0,0,0,224.64,103.49Zm-94.41,19.75a.34.34,0,0,0,.22-.07l1.13-.87a.36.36,0,1,0-.43-.57l-1.14.88a.36.36,0,0,0-.06.5A.35.35,0,0,0,130.23,123.24Zm-14.58,13.64a.35.35,0,0,0,.26-.12l1-1a.36.36,0,1,0-.53-.49l-1,1.07a.35.35,0,0,0,0,.5A.36.36,0,0,0,115.65,136.88Zm3.41-3.65a.36.36,0,0,0,.25-.11l1-1a.38.38,0,0,0,0-.51.36.36,0,0,0-.51,0l-1,1a.37.37,0,0,0,0,.51A.39.39,0,0,0,119.06,133.23Zm-6.66,7.46a.35.35,0,0,0,.28-.13l.9-1.1A.35.35,0,0,0,113,139l-.92,1.11a.36.36,0,0,0,0,.5A.4.4,0,0,0,112.4,140.69Zm-3.07,3.95a.37.37,0,0,0,.29-.14c.28-.39.57-.77.85-1.14a.36.36,0,0,0-.56-.44l-.87,1.15a.36.36,0,0,0,.08.5A.33.33,0,0,0,109.33,144.64Zm46.73-36.36a.31.31,0,0,0,.13,0l1.32-.53a.35.35,0,1,0-.26-.66l-1.33.53a.36.36,0,0,0-.19.47A.36.36,0,0,0,156.06,108.28Zm14.23-4.71h.09l1.38-.35a.35.35,0,0,0,.26-.43.35.35,0,0,0-.43-.26l-1.39.34a.36.36,0,0,0,.09.71Zm76.85,122.7a28.85,28.85,0,0,0,1.27-3l-.72.08a72.93,72.93,0,0,1-8.58.53,113.16,113.16,0,0,1-2.59,15.29A35.62,35.62,0,0,0,247.14,226.27Zm-12.55,19.84a83.3,83.3,0,0,1-7.75,17.53,5.56,5.56,0,0,0,3.48,1.68l.47-.66a108.78,108.78,0,0,0,6-10c.57-1.06,1.11-2.12,1.64-3.19.44-.88.87-1.77,1.28-2.65q2-4.28,3.54-8.68a66.8,66.8,0,0,1-6.27,4.38C236.16,245.08,235.36,245.6,234.59,246.11Zm20.22-24a90,90,0,0,1-9.66,27.4c-1.1,2-2.29,4-3.54,5.88a8.32,8.32,0,0,1,.23,6.11,12.39,12.39,0,0,1-10,8.12l-.39,0a7.79,7.79,0,0,1-1.08,0l-.31,0c-.71.7-1.42,1.38-2.17,2a50.84,50.84,0,0,1-7.39,5.64l.23-.19c.54-.55,1.06-1.12,1.58-1.67s1-1.15,1.54-1.71,1-1.15,1.48-1.75c.78-.94,1.53-1.89,2.26-2.86a9.94,9.94,0,0,1-3.11-1.79,46.88,46.88,0,0,1-16.15,15v5s8.56-2.86,11.41-4.32c19.78-10.16,38.46-32.81,42.15-63.06-1.09.39-2.18.76-3.27,1.08C257.35,221.46,256.08,221.78,254.81,222.08ZM149,266c0-.2-.08-.4-.12-.64A59.22,59.22,0,0,1,148,252c.07-1.51.2-3.1.4-4.76.06-.55.14-1.11.22-1.68,0-.17,0-.34.08-.51.11-.68.23-1.37.36-2.06.05-.25.09-.49.14-.73.1-.49.21-1,.33-1.49a60.5,60.5,0,0,1,3.61-10.88c.11-.27.22-.53.34-.79,2-4.3,3.87-8.66,5.36-12.91a65.21,65.21,0,0,0,2.17-7.51c.1-.49.2-1,.29-1.46a35.78,35.78,0,0,0,.51-4.26c0-.5,0-1,0-1.48a23.68,23.68,0,0,0-.17-2.69,17,17,0,0,0-1.23-4.61,14.33,14.33,0,0,0-.71-1.48A14.87,14.87,0,0,0,157.8,190c-.25-.27-.5-.54-.77-.8a17.76,17.76,0,0,0-2.78-2.18c-.52-.34-1.06-.67-1.65-1-.36-.19-.72-.36-1.08-.53l-.37-.16-.71-.3-.44-.16-.63-.23-.47-.14-.6-.17-.48-.12-.57-.12-.49-.09-.26,0-.3,0-.48,0-.56-.05-.47,0h-.54l-.57,0c-.16,0-.32,0-.48,0s-.37,0-.56.06l-.48.07-.55.11h-.06c-.13,0-.27.05-.4.09s-.37.1-.55.15l-.45.13-.55.21-.42.16-.57.26-.38.18-.63.35-.3.18a10.05,10.05,0,0,0-.9.6l-.45.34a17.25,17.25,0,0,0-4.12,4.71,19.1,19.1,0,0,0-2.39,12.65c0,.23.08.46.14.69a12.48,12.48,0,0,0,2.78,5.46,12.3,12.3,0,0,0,1.23,1.16,11.72,11.72,0,0,0,1.41,1,12.68,12.68,0,0,0,2.21,1,14.65,14.65,0,0,0,2.1.56l-.13-.72-.08-.43a12.86,12.86,0,0,1-1.93-.69,9.23,9.23,0,0,1-2.14-1.34,8.41,8.41,0,0,1-1.44-1.54c-.14-.19-.27-.39-.4-.6a12.63,12.63,0,0,1-1.6-4.34,16.53,16.53,0,0,1,5.95-15.72h0c.25-.19.5-.36.76-.52l.26-.15.53-.31.32-.15c.17-.08.33-.17.5-.24l.35-.13.38-.15.1,0,.38-.11.48-.14.39-.08.49-.1.4-.06.49-.06.41,0,.5,0h.45l.41,0,.48,0a2.58,2.58,0,0,1,.29,0h.12l.5.07.4.07.51.12c.13,0,.27.05.4.09l.53.15.39.12.55.2.37.13.61.26.32.14c.29.13.58.28.88.43l0,0a17.48,17.48,0,0,1,2.33,1.46c3.88,2.9,5.46,6.87,5.52,11.49a33.56,33.56,0,0,1-1.68,10c-.18.59-.37,1.19-.57,1.79l-.34,1c-.38,1.06-.79,2.12-1.22,3.19s-.94,2.27-1.45,3.42-1,2.29-1.59,3.45h0c-.4.83-.8,1.66-1.21,2.49-1.8,3.66-3.26,7-4.41,10-.58,1.51-1.08,3-1.51,4.32-.14.45-.27.9-.4,1.34-.23.82-.42,1.61-.6,2.38-.14.62-.27,1.22-.38,1.81-.15.89-.27,1.74-.36,2.57s-.13,1.64-.14,2.42,0,1.54.08,2.28c0,.33.06.66.1,1a22.3,22.3,0,0,0,1.79,6.39,35.13,35.13,0,0,0,4,6.57h0v0C149.34,267.46,149.19,266.93,149,266Zm86.9-24.64c-4.29,2.88-8.54,5.94-11.32,9.29-.37.45-.71.9-1,1.36a13.64,13.64,0,0,0-.85,1.39c-.13.24-.24.47-.35.71a9.64,9.64,0,0,0-.54,1.44c-.07.24-.14.49-.19.74s-.1.55-.13.83a9.77,9.77,0,0,0,1.49,6.22c.21.36.44.7.67,1a1,1,0,0,1,.08.11,9.73,9.73,0,0,0,.7.84l.11.14c.24.24.47.48.72.69l0,0,.14.11a7.47,7.47,0,0,0,.79.6l.12.08a9.54,9.54,0,0,0,.87.49l.06,0c.3.14.61.26.92.37l.08,0,.22.06a6,6,0,0,0,.73.17l.14,0a7.81,7.81,0,0,0,1,.1h.19c.27,0,.55,0,.82,0h.34l.34-.05a10.26,10.26,0,0,0,3-.95c.29-.15.59-.3.87-.48a10.62,10.62,0,0,0,1.24-.87,9.63,9.63,0,0,0,1.1-1,9.84,9.84,0,0,0,2.28-3.76,7.08,7.08,0,0,0,.18-4.11l0-.1a6.47,6.47,0,0,0-.3-.84,7.72,7.72,0,0,0-1.92-2.59l-.07.19-.18.46h0c.1.11.18.22.27.33a6.22,6.22,0,0,1,.82,1.17,5.27,5.27,0,0,1,.6,2.41,6.52,6.52,0,0,1-.18,1.49,10.54,10.54,0,0,1-.36,1.23,9.4,9.4,0,0,1-1.81,2.91c-.26.28-.54.55-.83.81a10.46,10.46,0,0,1-1,.81,10.25,10.25,0,0,1-1.85,1l-.65.23a8.44,8.44,0,0,1-1.69.34c-.23,0-.46,0-.68,0h-.29l-.39,0-.6-.09h-.05l-.35-.08-.55-.17-.39-.16c-.17-.07-.35-.16-.52-.25s-.25-.13-.37-.21-.33-.22-.5-.34l-.34-.25c-.11-.09-.21-.2-.31-.29l-.17-.15-.3-.29c-.17-.18-.33-.38-.49-.58a3.11,3.11,0,0,1-.23-.28c-.23-.31-.45-.63-.66-1a8.1,8.1,0,0,1-1-6.69,8.86,8.86,0,0,1,.49-1.26,12.16,12.16,0,0,1,1.51-2.43,21.69,21.69,0,0,1,2.13-2.34c.4-.38.82-.76,1.26-1.13,1.09-.94,2.3-1.86,3.57-2.76l1.1-.75,1.27-.84.64-.42,1-.63.4-.25c.86-.55,1.68-1.09,2.44-1.61l.59-.41a45,45,0,0,0,4.51-3.56c.32-.29.63-.59.92-.88,4.39-4.37,5.26-8.28,4.82-13.39h0s-.18.63-.6,1.68a2.44,2.44,0,0,0-.1.24l-.34.8c-.23.5-.49,1.05-.8,1.65a34.37,34.37,0,0,1-2,3.49c-.27.42-.57.85-.88,1.29s-.74,1-1.15,1.5-.83,1-1.29,1.53a35.79,35.79,0,0,1-4.79,4.46c-.61.48-1.26,1-1.93,1.4ZM239,198.19h-.05a65.69,65.69,0,0,0-18.86,2.7,58.64,58.64,0,0,0-9.4,3.71,50.94,50.94,0,0,0-4.69,2.65l-.53.34a32.87,32.87,0,0,0-2.82,2l2.82-.12,65.91-2.58c-1.38-.86-2.78-1.64-4.17-2.34a58.39,58.39,0,0,0-9.4-3.7A65,65,0,0,0,239,198.19Zm17,13.5-7-.27-9.21-.36v0h-.78l-33.48-1.31-2.82-.11c1,.8,2,1.46,2.82,2l.53.34a53.38,53.38,0,0,0,4.69,2.65,59.54,59.54,0,0,0,9.4,3.7A66.06,66.06,0,0,0,239,221h.42a66.07,66.07,0,0,0,8.76-.6l1.15-.16,1.78-.29q2.13-.39,4.23-.93c.84-.21,1.67-.44,2.51-.68,1.47-.44,2.94-.95,4.4-1.51q2.54-1,5-2.2c1.39-.69,2.79-1.48,4.17-2.34l-8.88-.35Zm-50.51,37.25a69.36,69.36,0,0,0-8.56-9.48l-1.43-1.36-.59-.57a79.57,79.57,0,0,1-8-8.3,18,18,0,0,1-3.69-7.29c-1.6,5.89.3,10.42,3.69,14.67a78.15,78.15,0,0,0,6.92,7.22l1.64,1.59,1.43,1.4a52.92,52.92,0,0,1,8.56,10.49,30.56,30.56,0,0,1,4.37,15.07C212.51,262.6,209.93,255.18,205.46,248.94Zm-18.55-70.32a25.64,25.64,0,0,0-3.19,21.69,30.42,30.42,0,0,1,3.19-12.91,45.94,45.94,0,0,1,8.56-11.46c.48-.49.95-1,1.43-1.44.94-.93,1.89-1.84,2.82-2.74,2.06-2,4-3.88,5.74-5.82,4.1-4.66,6.64-9.52,4.87-16.07-.63,3.08-2.46,5.93-4.87,8.72-2,2.31-4.36,4.57-6.79,6.88l-1.77,1.68-1.43,1.38A57.91,57.91,0,0,0,186.91,178.62Zm52-.41H239c1.57-3.8,7-7.56,13.51-6.4a15.42,15.42,0,0,1,4,1.32c5.34,4.55,8.48,9.47,5,14.92-.2.3-.4.58-.6.85l-.08.09c-.2.25-.4.48-.61.7l-.11.12c-.21.21-.43.4-.65.59l-.12.09a8,8,0,0,1-.7.49l-.1.06a7,7,0,0,1-.77.4h0a6.64,6.64,0,0,1-.81.3l-.1,0a7.1,7.1,0,0,1-.8.17l-.14,0a7.34,7.34,0,0,1-.81,0h-.16a6.56,6.56,0,0,1-.76,0,7.6,7.6,0,0,1-1.24-.26,9.28,9.28,0,0,1-3.68-2.05,9.51,9.51,0,0,1-2.75-4,8,8,0,0,1-.43-1.87,5.89,5.89,0,0,1,0-1.26,5.58,5.58,0,0,1,1.72-3.37l.06-.08-.15-.44-.07-.22h0a8.07,8.07,0,0,0-1.49,1.63,6.46,6.46,0,0,0-1,2.07,4.5,4.5,0,0,0-.15.73,6.81,6.81,0,0,0-.07,1,8,8,0,0,0,.33,2.11,10.24,10.24,0,0,0,2.94,4.65,11,11,0,0,0,1.48,1.16c.21.14.43.27.65.4a10.34,10.34,0,0,0,2.05.89c.24.07.48.14.72.19s.48.1.73.14l.33,0h0a7.63,7.63,0,0,0,.82,0h.19a7.5,7.5,0,0,0,1-.06l.15,0c.32-.05.64-.12,1-.2l.07,0a8.07,8.07,0,0,0,.94-.33l.05,0a7.49,7.49,0,0,0,.89-.46l.13-.07c.27-.18.54-.37.81-.58l.14-.11c.26-.21.51-.44.76-.68l.12-.13c.25-.26.49-.53.73-.82a.44.44,0,0,1,.08-.11c.24-.31.48-.64.7-1a11.63,11.63,0,0,0,1.35-2.88,9,9,0,0,0,.38-2.78c0-.29,0-.58-.07-.86a9.55,9.55,0,0,0-.4-1.82s0,0,0-.05a12.31,12.31,0,0,0-1.17-2.54l.25.26c-1-2-2-4-3.07-6a86.21,86.21,0,0,0-21.76-26c-.69-.55-1.39-1.07-2.09-1.58a58.34,58.34,0,0,0-26.22-11l-.26,7.7C222.8,147.63,232.89,160.23,238.94,178.21Zm.7,4.16c-1.35-.61-1.7-5.78-5.2-4.7-1,2.73-.33,6.65-.33,6.65a12.16,12.16,0,0,1-.42-6.3c-3.94,2.93-1.92,8.6,2.05,10.13-.48-1.1.77-3.44,1.08-5.67A4.61,4.61,0,0,0,239.64,182.37Zm-9.19-14.13a.08.08,0,0,0,0,0c0-.12.08-.24.11-.36ZM213.83,163s-6.34,3.16-3.74,10.1c4.67,12.46,21.66,6.56,20.37-4.86-2.67,8.6-15.87,12.3-19,4.06C209.21,166.22,213.07,163.93,213.83,163Zm7.64,28.72a6.29,6.29,0,0,0,3.11,3.57,4.71,4.71,0,0,0,3.71.11l.26-.11c2.63-1.12,3.95-3.8,2.14-5.88,1.11,2.51-.1,3.83-2.17,4.61a3.64,3.64,0,0,1-4.89-2.16c-2.61-7,14.26-12.5,10.1-23.61C236.38,177.37,218.53,183.91,221.47,191.76Zm40.06-46.18c.64.65,1.28,1.31,1.9,2-.61-.65-1.22-1.3-1.85-1.93Zm-3.7-3.5q-2.19-2-4.5-3.78C254.87,139.51,256.37,140.78,257.83,142.08Z"/><path class="cls-1" d="M354,156H329.41V141.69H396V156H371.5v66.56H354Z"/><path class="cls-1" d="M400.64,195.82c0,7.6,3.82,15,12.19,15,7,0,9-2.81,10.59-6.49h16.84c-2.16,7.44-8.79,19.65-27.87,19.65-20,0-28.69-15-28.69-30.89,0-19.06,9.78-32.66,29.29-32.66,20.86,0,27.95,15.09,27.95,30.25a37.45,37.45,0,0,1-.22,5.12Zm23.46-10.33c-.12-7.07-3-13-11.14-13s-11.3,5.56-12,13Z"/><path class="cls-1" d="M499,203c-2.09,10.12-9.21,21-27.31,21-18.9,0-28.62-13.08-28.62-31.34,0-17.93,10.94-32.21,29.43-32.21,20.48,0,26.17,14.69,26.5,21.56H482.56c-1-4.95-3.84-8.4-10.4-8.4-7.69,0-12,6.73-12,18.51,0,12.93,4.6,18.82,12,18.82,5.77,0,8.87-3.41,10.37-8Z"/><path class="cls-1" d="M519.07,136.94V169c2.67-3.94,7.59-8.58,17.4-8.58,11.33,0,20.35,6.7,20.35,23.17v39H540.11V186.14c0-7.9-2.81-12.09-9.86-12.09-9.34,0-11.18,6.95-11.18,16.32v32.22H502.26V136.94Z"/><path class="cls-1" d="M565,177.16c0-5.17,0-10.82-.12-15.31h16.29a71.55,71.55,0,0,1,.65,7.74c2.06-3.81,7-9.14,17.62-9.14,12.2,0,20.12,8.24,20.12,23.5v38.64H602.77V185.82c0-6.83-2.28-11.77-9.7-11.77-7.15,0-11.23,4-11.23,14.69v33.85H565Z"/><path class="cls-1" d="M627.46,136.94h16.82v15H627.46Zm0,24.91h16.82v60.74H627.46Z"/><path class="cls-1" d="M704.92,203c-2.1,10.12-9.21,21-27.31,21-18.9,0-28.62-13.08-28.62-31.34,0-17.93,10.94-32.21,29.43-32.21,20.48,0,26.16,14.69,26.5,21.56H688.5c-1-4.95-3.84-8.4-10.41-8.4-7.68,0-12,6.73-12,18.51,0,12.93,4.61,18.82,12,18.82,5.78,0,8.88-3.41,10.38-8Z"/><path class="cls-1" d="M758.91,206.9c0,5.78.47,14.23.83,15.69H743.67a24.87,24.87,0,0,1-.85-5.94c-2.2,3.42-6.33,7.35-17.07,7.35-14.65,0-20.83-9.63-20.83-19.05,0-13.84,11.12-20.22,28.92-20.22h8.67V181c0-4.32-1.55-8.56-9.35-8.56-7.1,0-8.65,3-9.43,7.41h-16c.91-10.79,7.59-19.53,26-19.42,16.27.1,25.12,6.46,25.12,20.91Zm-16.38-12h-6.86c-10.13,0-13.89,3.09-13.89,8.95,0,4.4,2.7,8.1,8.75,8.1,10.68,0,12-7.43,12-15.45Z"/><path class="cls-1" d="M767.1,222.59V136.94h16.81v85.65Z"/><path class="cls-1" d="M864.45,222.59H851.62a45.53,45.53,0,0,1-1.33-8c-4.49,6-12.39,9.33-23.63,9.33-23.48,0-36.6-17.74-36.6-40.78,0-24.32,14.15-42.64,39.65-42.64,20.81,0,33.06,11.75,35,25.54h-17.5c-1.66-5.42-5.93-11.82-17.77-11.82-16.61,0-21.35,13.89-21.35,28.15,0,13.92,5.42,27.63,21.46,27.63,15,0,17.71-10.38,17.71-17.62v-.73H829.55V177.33h34.9Z"/><path class="cls-1" d="M929.68,192.11c0,18.37-11,31.89-30.23,31.89-18.84,0-29.83-13.44-29.83-31.57,0-18.74,11.33-32,30.62-32C918.12,160.45,929.68,173.06,929.68,192.11Zm-43,.11c0,11.69,5,18.62,13.13,18.62s12.81-6.93,12.81-18.51c0-12.71-4.67-18.72-13-18.72C891.78,173.61,886.68,179.38,886.68,192.22Z"/><path class="cls-1" d="M990.62,136.94v69c0,5.53,0,11.13.12,16.69H974.57c-.34-1.82-.66-5-.77-6.34-2.93,4.78-8.16,7.75-17.23,7.75-15.36,0-25.13-12.34-25.13-31.28,0-18.69,10.39-32.27,27.59-32.27,8.73,0,13.43,3.08,14.77,5.8V136.94Zm-41.91,55.34c0,11.84,4.62,18.25,12.85,18.25,11.56,0,12.89-9.64,12.89-18.37,0-10.39-1.47-18.24-12.46-18.24C953.17,173.92,948.71,180.81,948.71,192.28Z"/><path class="cls-1" d="M1010.3,204.33c1.28,4.84,5.23,7.56,11.5,7.56s8.47-2.23,8.47-5.91c0-3.9-2.61-5.43-11.31-7.56-19.78-4.88-23-11-23-19.58,0-8.92,6.31-18.39,24.63-18.39s24.65,10.06,25.18,18.28h-16c-.54-2.24-2-6.48-9.94-6.48-5.56,0-7.36,2.46-7.36,5.19,0,3,1.89,4.48,11.75,6.78,20.26,4.72,23.13,11.66,23.13,20.57,0,10.06-7.65,19.21-26.17,19.21s-26-8.9-27.39-19.67Z"/><path class="cls-1" d="M1051.55,222.59V202h18.06v20.61Z"/><path class="cls-1" d="M1131,203c-2.1,10.12-9.21,21-27.31,21-18.91,0-28.63-13.08-28.63-31.34,0-17.93,11-32.21,29.43-32.21,20.48,0,26.17,14.69,26.51,21.56h-16.42c-1-4.95-3.85-8.4-10.41-8.4-7.69,0-12,6.73-12,18.51,0,12.93,4.61,18.82,12,18.82,5.78,0,8.87-3.41,10.37-8Z"/><path class="cls-1" d="M1191.71,192.11c0,18.37-11,31.89-30.24,31.89-18.84,0-29.83-13.44-29.83-31.57,0-18.74,11.33-32,30.62-32C1180.14,160.45,1191.71,173.06,1191.71,192.11Zm-43,.11c0,11.69,5,18.62,13.12,18.62,8.24,0,12.81-6.93,12.81-18.51,0-12.71-4.66-18.72-13-18.72C1153.8,173.61,1148.71,179.38,1148.71,192.22Z"/><path class="cls-1" d="M1196.21,177.51c0-5.25,0-10.46-.11-15.66h16.08c.22,1.48.55,4.88.64,7.25,3.09-4.53,8-8.65,16.88-8.65,8.73,0,13.53,4.52,15.67,9.24,3.56-5,8.8-9.24,18.72-9.24,10.58,0,19.25,6.5,19.25,22.3v39.84h-16.41v-37.8c0-5.48-2-10.85-8.87-10.85-7.15,0-9.94,4.61-9.94,13.93v34.72h-16.49V185.43c0-6.3-1.55-11.38-8.73-11.38-6.83,0-10.08,4.2-10.08,14.62v33.92h-16.61Z"/></svg>
